<?xml version="1.0" standalone="no"?>
<!DOCTYPE svg PUBLIC "-//W3C//DTD SVG 20010904//EN"
 "http://www.w3.org/TR/2001/REC-SVG-20010904/DTD/svg10.dtd">
<svg version="1.0" xmlns="http://www.w3.org/2000/svg"
 width="648.000000pt" height="648.000000pt" viewBox="0 0 648.000000 648.000000"
 preserveAspectRatio="xMidYMid meet">

<g transform="translate(0.000000,648.000000) scale(0.100000,-0.100000)"
fill="#7551eb" stroke="none">
<path d="M3085 5360 c-355 -25 -695 -140 -1002 -337 -46 -29 -83 -57 -83 -62
0 -7 640 -778 700 -845 5 -4 28 3 52 17 165 96 414 144 612 118 607 -81 1007
-666 860 -1259 -23 -94 -82 -226 -136 -308 -285 -428 -832 -576 -1297 -353
-81 40 -84 40 -101 22 -10 -10 -138 -162 -286 -338 -147 -176 -301 -359 -341
-407 l-73 -87 87 -58 c239 -157 520 -266 828 -320 145 -25 519 -25 669 0 948
160 1661 905 1776 1857 15 124 12 382 -5 516 -59 447 -256 861 -566 1189 -433
457 -1062 700 -1694 655z"/>
</g>
</svg>
