<?xml version="1.0" standalone="no"?>
<!DOCTYPE svg PUBLIC "-//W3C//DTD SVG 20010904//EN"
 "http://www.w3.org/TR/2001/REC-SVG-20010904/DTD/svg10.dtd">
<svg version="1.0" xmlns="http://www.w3.org/2000/svg"
 width="200.000000pt" height="200.000000pt" viewBox="0 0 200.000000 200.000000"
 preserveAspectRatio="xMidYMid meet">

<g transform="translate(0.000000,200.000000) scale(0.100000,-0.100000)"
fill="#3a42d7" stroke="none">
<path d="M955 1804 c-169 -27 -314 -124 -371 -249 -52 -114 -53 -268 -3 -373
56 -116 161 -177 440 -257 104 -30 202 -61 217 -69 37 -19 69 -51 77 -76 5
-16 15 -20 48 -20 61 1 124 33 190 100 67 67 68 77 11 146 -70 87 -175 139
-408 204 -227 62 -273 88 -291 162 -10 39 12 94 45 118 16 12 55 26 85 33 78
16 187 -8 310 -67 57 -28 109 -46 130 -46 111 0 183 113 133 209 -47 91 -272
179 -473 186 -60 2 -123 1 -140 -1z"/>
<path d="M1584 801 c-30 -42 -57 -65 -105 -91 -59 -32 -72 -35 -169 -38 -85
-3 -136 2 -270 26 -268 49 -319 55 -445 56 -208 1 -314 -53 -370 -188 l-15
-36 30 6 30 6 -20 -44 c-24 -54 -45 -156 -55 -258 l-6 -75 51 58 c122 136 255
162 582 116 122 -17 183 -20 298 -16 204 7 295 39 394 140 89 90 127 183 125
311 -1 86 -9 90 -55 27z m-964 -96 c0 -2 -20 -13 -45 -24 -61 -27 -57 -41 13
-41 31 0 64 -5 72 -10 12 -8 12 -10 -5 -10 -28 0 -114 -44 -150 -76 -21 -18
-24 -24 -10 -19 11 5 54 10 95 12 l75 3 -45 -23 c-91 -47 -112 -67 -69 -67 35
0 93 -20 120 -42 23 -18 23 -19 2 -13 -39 11 -196 8 -243 -5 -25 -6 -69 -25
-99 -41 -29 -17 -55 -29 -57 -27 -12 13 33 146 71 207 l44 71 -36 0 c-35 0
-35 1 -19 19 28 31 110 70 167 80 61 10 119 13 119 6z"/>
</g>
</svg>
